<svg width="150" height="30" viewBox="0 0 150 30" fill="none" xmlns="http://www.w3.org/2000/svg">
<rect x="74.3542" width="20.9488" height="20.9488" transform="rotate(45 74.3542 0)" fill="#979797"/>
<path fill-rule="evenodd" clip-rule="evenodd" d="M103.289 16.7691C102.783 19.2618 100.579 21.138 97.937 21.138C94.9209 21.138 92.4758 18.693 92.4758 15.6769C92.4758 12.6607 94.9209 10.2157 97.937 10.2157C100.579 10.2157 102.783 12.0919 103.289 14.5846H150V16.7691H103.289Z" fill="#979797"/>
<path fill-rule="evenodd" clip-rule="evenodd" d="M52.0631 21.8662C55.4814 21.8662 58.2524 19.0951 58.2524 15.6769C58.2524 12.2586 55.4814 9.48755 52.0631 9.48755C49.0175 9.48755 46.4857 11.6873 45.9699 14.5846H0V16.7691H45.9698C46.4857 19.6664 49.0175 21.8662 52.0631 21.8662Z" fill="#979797"/>
</svg>
