<svg width="30" height="30" viewBox="0 0 30 30" fill="none" xmlns="http://www.w3.org/2000/svg">
<g clip-path="url(#clip0_108_264)">
<path d="M23.8181 14.9092C23.8181 17.272 22.8794 19.5381 21.2087 21.2088C19.5379 22.8796 17.2718 23.8183 14.909 23.8183C12.5462 23.8183 10.2801 22.8796 8.60931 21.2088C6.93853 19.5381 5.9999 17.272 5.9999 14.9092C5.97865 14.2977 6.03981 13.6861 6.18172 13.091H0.181716V25.091C0.176874 25.7131 0.295843 26.33 0.531696 26.9057C0.767549 27.4815 1.11557 28.0045 1.55551 28.4445C1.99545 28.8844 2.5185 29.2324 3.09423 29.4683C3.66995 29.7041 4.28684 29.8231 4.90899 29.8183H25.2726C25.8948 29.8231 26.5117 29.7041 27.0874 29.4683C27.6631 29.2324 28.1862 28.8844 28.6261 28.4445C29.066 28.0045 29.4141 27.4815 29.6499 26.9057C29.8858 26.33 30.0047 25.7131 29.9999 25.091V13.091H23.9999C23.858 13.6861 23.7968 14.2977 23.8181 14.9092ZM25.0908 7.70926e-05H4.72717C4.10503 -0.00476472 3.48813 0.114204 2.91241 0.350057C2.33668 0.58591 1.81363 0.933935 1.37369 1.37387C0.933756 1.81381 0.585731 2.33686 0.349878 2.91259C0.114025 3.48831 -0.00494389 4.10521 -0.000102079 4.72735V9.81826H7.45444C8.2692 8.64279 9.35604 7.68171 10.6224 7.01689C11.8887 6.35207 13.2969 6.00323 14.7272 6.00008C16.1611 5.98266 17.5768 6.32259 18.8465 6.98919C20.1162 7.65578 21.2 8.62805 21.9999 9.81826H29.4544V4.72735C29.5165 4.12212 29.4491 3.51063 29.2567 2.93343C29.0644 2.35624 28.7515 1.82655 28.3389 1.37949C27.9262 0.932443 27.4232 0.578257 26.8632 0.340436C26.3032 0.102615 25.6991 -0.0134041 25.0908 7.70926e-05ZM27.4544 5.81826C27.4625 5.93972 27.4445 6.0615 27.4016 6.17544C27.3588 6.28938 27.2921 6.39285 27.206 6.47892C27.1199 6.565 27.0165 6.63169 26.9025 6.67453C26.7886 6.71738 26.6668 6.73539 26.5454 6.72735H23.9999C23.8784 6.73539 23.7567 6.71738 23.6427 6.67453C23.5288 6.63169 23.4253 6.565 23.3392 6.47892C23.2532 6.39285 23.1865 6.28938 23.1436 6.17544C23.1008 6.0615 23.0828 5.93972 23.0908 5.81826V3.2728C23.0828 3.15134 23.1008 3.02956 23.1436 2.91562C23.1865 2.80169 23.2532 2.69822 23.3392 2.61214C23.4253 2.52607 23.5288 2.45937 23.6427 2.41653C23.7567 2.37369 23.8784 2.35568 23.9999 2.36371H26.5454C26.6668 2.35568 26.7886 2.37369 26.9025 2.41653C27.0165 2.45937 27.1199 2.52607 27.206 2.61214C27.2921 2.69822 27.3588 2.80169 27.4016 2.91562C27.4445 3.02956 27.4625 3.15134 27.4544 3.2728V5.81826ZM20.3635 14.9092C20.3635 13.4625 19.7889 12.0751 18.7659 11.0522C17.743 10.0293 16.3556 9.45462 14.909 9.45462C13.4624 9.45462 12.075 10.0293 11.052 11.0522C10.0291 12.0751 9.45444 13.4625 9.45444 14.9092C9.49126 16.3442 10.0777 17.7103 11.0928 18.7254C12.1079 19.7404 13.474 20.3269 14.909 20.3637C15.6328 20.3918 16.3547 20.27 17.0292 20.0058C17.7037 19.7416 18.3163 19.3409 18.8285 18.8287C19.3407 18.3164 19.7415 17.7038 20.0056 17.0293C20.2698 16.3548 20.3917 15.633 20.3635 14.9092Z" fill="white"/>
</g>
<defs>
<clipPath id="clip0_108_264">
<rect width="30" height="29.8182" fill="white"/>
</clipPath>
</defs>
</svg>
