<svg width="22" height="23" viewBox="0 0 22 23" fill="none" xmlns="http://www.w3.org/2000/svg">
<path fill-rule="evenodd" clip-rule="evenodd" d="M14.2083 12.8417H13.4842L13.2275 12.594C14.1258 11.5483 14.6667 10.1908 14.6667 8.714C14.6667 5.42103 11.9992 2.7518 8.70833 2.7518C5.4175 2.7518 2.75 5.42103 2.75 8.714C2.75 12.007 5.4175 14.6762 8.70833 14.6762C10.1842 14.6762 11.5408 14.135 12.5858 13.2361L12.8333 13.4929V14.2176L17.4167 18.7947L18.7825 17.428L14.2083 12.8417ZM8.70833 12.8417C6.42583 12.8417 4.58333 10.998 4.58333 8.714C4.58333 6.43002 6.42583 4.58632 8.70833 4.58632C10.9908 4.58632 12.8333 6.43002 12.8333 8.714C12.8333 10.998 10.9908 12.8417 8.70833 12.8417Z" fill="#0A0700"/>
</svg>
