<svg width="152" height="31" viewBox="0 0 152 31" fill="none" xmlns="http://www.w3.org/2000/svg">
<rect x="76.3542" y="0.970428" width="20.9488" height="20.9488" transform="rotate(45 76.3542 0.970428)" fill="#C7AD76"/>
<path fill-rule="evenodd" clip-rule="evenodd" d="M105.289 17.7395C104.783 20.2323 102.579 22.1085 99.937 22.1085C96.9209 22.1085 94.4758 19.6634 94.4758 16.6473C94.4758 13.6312 96.9209 11.1861 99.937 11.1861C102.579 11.1861 104.783 13.0623 105.289 15.5551H152V17.7395H105.289Z" fill="#C7AD76"/>
<path fill-rule="evenodd" clip-rule="evenodd" d="M52.0631 22.8366C55.4814 22.8366 58.2524 20.0656 58.2524 16.6473C58.2524 13.229 55.4814 10.458 52.0631 10.458C49.0175 10.458 46.4857 12.6577 45.9698 15.5551H0V17.7395H45.9699C46.4857 20.6369 49.0175 22.8366 52.0631 22.8366Z" fill="#C7AD76"/>
</svg>
