<svg width="35" height="35" viewBox="0 0 35 35" fill="none" xmlns="http://www.w3.org/2000/svg">
<path d="M23.4289 4.44717C24.4488 4.39686 25.4676 4.5653 26.4169 4.94119C27.3663 5.31707 28.2243 5.8917 28.9333 6.6265C30.1812 6.42898 31.3871 6.02358 32.5009 5.42717L33.3666 4.9605C32.9475 6.24594 32.1626 7.38121 31.1079 8.22717C30.8761 8.43884 30.6152 8.6164 30.3333 8.7545V8.77084C31.8429 8.7545 33.0889 8.07084 34.2719 7.70684V7.72317C33.6378 8.74474 32.8437 9.65781 31.9199 10.4275L30.8349 11.2885C30.896 12.783 30.7879 14.2796 30.5129 15.7498C28.7746 23.5478 24.1709 28.8398 16.8816 31.1078C14.2636 31.9222 10.0333 32.2558 7.03493 31.5115C5.63528 31.1837 4.26611 30.7372 2.94227 30.1768C2.2621 29.8852 1.60258 29.5477 0.968267 29.1665L0.356934 28.7955C1.09293 28.8952 1.83685 28.9233 2.57827 28.8795C3.26193 28.7698 3.93393 28.7978 4.56393 28.6602C6.02593 28.3799 7.43515 27.8729 8.7406 27.1575C9.42569 26.8399 10.0608 26.424 10.6259 25.9232C9.91866 25.9241 9.21693 25.7985 8.55393 25.5522C7.52403 25.2074 6.58873 24.6271 5.82237 23.8575C5.05601 23.0879 4.47971 22.1502 4.13927 21.1188C4.8206 21.1935 6.78527 21.3708 7.24493 20.9835C6.42406 20.8673 5.64395 20.5525 4.97227 20.0665C3.94634 19.4571 3.10231 18.5841 2.52786 17.5381C1.9534 16.4922 1.66949 15.3116 1.7056 14.1188L2.4196 14.4572C2.8925 14.6415 3.38259 14.7783 3.8826 14.8655C4.18926 14.9663 4.51503 14.995 4.8346 14.9495H4.7996C4.4496 14.5435 3.87793 14.2728 3.5256 13.8342C2.78254 12.9842 2.25322 11.9691 1.9817 10.8733C1.71018 9.77751 1.70432 8.6327 1.9646 7.53417C2.13889 6.90323 2.38964 6.29595 2.71127 5.72584L2.74627 5.74217C2.92739 6.00771 3.13795 6.25193 3.37393 6.47017C3.98834 7.20453 4.68337 7.86747 5.44593 8.44651C7.92272 10.4586 10.835 11.8648 13.9509 12.5532C14.9727 12.8114 16.0214 12.9477 17.0753 12.9592C16.8065 11.8853 16.8185 10.7604 17.1103 9.6925C17.3617 8.66325 17.8481 7.70624 18.5315 6.89657C19.2149 6.08689 20.0765 5.44657 21.0489 5.02584C21.5477 4.82107 22.0649 4.6648 22.5936 4.55917L23.4429 4.4565" fill="white"/>
</svg>
