<svg width="17" height="17" viewBox="0 0 17 17" fill="none" xmlns="http://www.w3.org/2000/svg">
<path fill-rule="evenodd" clip-rule="evenodd" d="M12.2083 10.8417H11.4842L11.2275 10.594C12.1258 9.54834 12.6667 8.1908 12.6667 6.714C12.6667 3.42103 9.99917 0.751801 6.70833 0.751801C3.4175 0.751801 0.75 3.42103 0.75 6.714C0.75 10.007 3.4175 12.6762 6.70833 12.6762C8.18417 12.6762 9.54083 12.135 10.5858 11.2361L10.8333 11.4929V12.2176L15.4167 16.7947L16.7825 15.428L12.2083 10.8417ZM6.70833 10.8417C4.42583 10.8417 2.58333 8.99799 2.58333 6.714C2.58333 4.43002 4.42583 2.58632 6.70833 2.58632C8.99083 2.58632 10.8333 4.43002 10.8333 6.714C10.8333 8.99799 8.99083 10.8417 6.70833 10.8417Z" fill="#FFD549"/>
</svg>
